<svg id="visual" viewBox="0 0 900 600" width="900" height="600" xmlns="http://www.w3.org/2000/svg" xmlns:xlink="http://www.w3.org/1999/xlink" version="1.1"><rect x="0" y="0" width="900" height="600" fill="#001122"></rect><defs><linearGradient id="grad1_0" x1="33.3%" y1="100%" x2="100%" y2="0%"><stop offset="20%" stop-color="#001122" stop-opacity="1"></stop><stop offset="80%" stop-color="#001122" stop-opacity="1"></stop></linearGradient></defs><defs><linearGradient id="grad2_0" x1="0%" y1="100%" x2="66.7%" y2="0%"><stop offset="20%" stop-color="#001122" stop-opacity="1"></stop><stop offset="80%" stop-color="#001122" stop-opacity="1"></stop></linearGradient></defs><g transform="translate(900, 600)"><path d="M-405.6 0C-368.4 -25.9 -331.2 -51.8 -328.4 -88C-325.7 -124.2 -357.4 -170.8 -351.3 -202.8C-345.2 -234.8 -301.3 -252.1 -265.9 -265.9C-230.4 -279.6 -203.4 -289.9 -178 -308.3C-152.6 -326.7 -128.8 -353.3 -99.4 -370.9C-70 -388.5 -35 -397.1 0 -405.6L0 0Z" fill="#132066"></path></g><g transform="translate(0, 0)"><path d="M405.6 0C411.4 40 417.1 80.1 391.8 105C366.5 129.9 310.2 139.7 289.3 167C268.3 194.3 282.8 239.2 273.7 273.7C264.5 308.1 231.8 332.2 198 342.9C164.2 353.7 129.5 351.1 96.3 359.3C63.1 367.5 31.6 386.6 0 405.6L0 0Z" fill="#132066"></path></g></svg>